<?xml version="1.0" encoding="UTF-8"?>
<svg version="1.1" xmlns="http://www.w3.org/2000/svg" width="820" height="538">
<path d="M0 0 C270.6 0 541.2 0 820 0 C820 177.54 820 355.08 820 538 C549.4 538 278.8 538 0 538 C0 360.46 0 182.92 0 0 Z " fill="#0000FF" transform="translate(0,0)"/>
<path d="M0 0 C0.7665619 -0.00551417 1.53312379 -0.01102833 2.32291484 -0.0167096 C4.90683266 -0.03036924 7.4897992 -0.01537338 10.07369995 -0.00063419 C11.93871549 -0.00452475 13.80372806 -0.01016322 15.6687336 -0.01740509 C20.80558993 -0.03221298 25.94214138 -0.0219469 31.07898808 -0.00766838 C36.61416727 0.0034073 42.14930249 -0.00848987 47.68447876 -0.01751041 C58.53258993 -0.03146815 69.38058496 -0.023868 80.22869062 -0.00883483 C92.85256726 0.0079956 105.47641473 0.00481876 118.10029912 0.00107109 C141.30011362 -0.00499001 164.49986845 0.01081287 187.69966367 0.03625872 C208.8873502 0.05937452 230.0749685 0.0647623 251.26266479 0.05452633 C256.68784584 0.05192441 262.11302688 0.04933942 267.53820801 0.04692841 C268.20606998 0.04663096 268.87393196 0.04633351 269.56203218 0.04602705 C287.25581119 0.0384156 304.94958536 0.04488033 322.64336205 0.05562443 C325.17887751 0.05715032 327.71439298 0.05867068 330.24990845 0.06018543 C331.49754349 0.06094325 332.74517853 0.06170106 334.03062069 0.06248184 C342.83732371 0.06723135 351.64401133 0.06536851 360.45071411 0.06112003 C371.17807948 0.05620135 381.90537418 0.06214202 392.63272333 0.08201433 C398.10960131 0.09190905 403.58637152 0.09696799 409.06325531 0.08912182 C414.07186528 0.08209312 419.08025723 0.08880345 424.08883834 0.10672545 C425.90573204 0.11078827 427.72264544 0.1097396 429.53953195 0.10320658 C431.99990593 0.09511347 434.4595351 0.10529823 436.91986084 0.12025452 C437.99012988 0.11014804 437.99012988 0.11014804 439.08202052 0.09983739 C442.16171791 0.13630708 444.20114987 0.35272281 446.89943886 1.89432949 C448.93819456 3.99285705 448.96595737 5.10213452 448.97750854 8.00032711 C448.99011719 8.90814434 449.00272583 9.81596157 449.01571655 10.75128841 C449.00357117 12.21853107 449.00357117 12.21853107 448.99118042 13.715415 C448.99500732 14.72270153 448.99883423 15.72998806 449.0027771 16.76779842 C449.00549984 18.89870356 448.99811342 21.02964191 448.98141479 23.16048336 C448.9600332 26.42239161 448.9811934 29.68209159 449.00680542 32.94393063 C449.00416177 35.01359695 448.99903603 37.0832619 448.99118042 39.152915 C448.99927734 40.12905254 449.00737427 41.10519009 449.01571655 42.11090755 C448.99680359 43.47736164 448.99680359 43.47736164 448.97750854 44.87142086 C448.97432617 45.67067486 448.9711438 46.46992886 448.96786499 47.29340267 C448.23972784 50.45743507 447.01949861 51.51387031 444.45993042 53.50057125 C441.80759265 53.89281467 439.5702532 54.03872151 436.91986084 54.00393581 C436.15329894 54.00974958 435.38673705 54.01556334 434.596946 54.02155328 C432.01303563 54.03622017 429.43006527 54.02223737 426.84616089 54.00850582 C424.98114471 54.0131121 423.11613216 54.01946317 421.25112724 54.0274148 C416.11427756 54.04416875 410.97772375 54.03583426 405.84087276 54.02346992 C400.30568843 54.01444651 394.77055618 54.02837567 389.23538208 54.03938961 C378.3872761 54.05720843 367.53928059 54.05331988 356.69117022 54.04173905 C347.87740704 54.03271821 339.06367491 54.03147487 330.24990845 54.03583431 C328.99714202 54.03644724 327.74437559 54.03706018 326.45364654 54.03769168 C323.90895159 54.03897054 321.36425665 54.04026739 318.81956172 54.04158205 C295.61974982 54.05267205 272.41999577 54.04115674 249.22019717 54.02021166 C228.0324978 54.00122861 206.84489458 54.00292709 185.65719604 54.02205563 C161.86361885 54.04346487 138.07008824 54.05189897 114.27649879 54.03960657 C111.74098334 54.03833233 109.20546787 54.03707485 106.66995239 54.03583431 C104.79849983 54.03490866 104.79849983 54.03490866 102.88924015 54.03396431 C94.08252924 54.03050559 85.27585237 54.03635098 76.46914673 54.04575253 C65.74176679 54.05695236 55.01450397 54.05397496 44.28713751 54.03262955 C38.81022791 54.02209198 33.33351383 54.01804331 27.85660553 54.03122616 C22.84794044 54.04309993 17.83965307 54.03667072 12.8310225 54.01531595 C11.01412845 54.01082852 9.19720283 54.01316376 7.38032889 54.0228191 C4.91975879 54.03489739 2.46050037 54.02259675 0 54.00393581 C-1.07026904 54.01798281 -1.07026904 54.01798281 -2.16215968 54.03231359 C-5.55395394 53.98052628 -7.26654367 53.71319142 -9.97957802 51.60426569 C-11.78892338 49.16509212 -12.04535483 47.98617379 -12.05764771 44.97908688 C-12.07025635 44.09136593 -12.08286499 43.20364498 -12.09585571 42.2890234 C-12.08775879 41.33789669 -12.07966187 40.38676998 -12.07131958 39.40682125 C-12.07514648 38.42314571 -12.07897339 37.43947018 -12.08291626 36.42598629 C-12.08563585 34.3481357 -12.0782714 32.2702509 -12.06155396 30.19246578 C-12.04014542 27.01183914 -12.06135446 23.83347138 -12.08694458 20.652915 C-12.08430131 18.63337876 -12.07917636 16.61384393 -12.07131958 14.59432125 C-12.0794165 13.64319454 -12.08751343 12.69206783 -12.09585571 11.7121191 C-12.08324707 10.82439816 -12.07063843 9.93667721 -12.05764771 9.02205563 C-12.05446533 8.24358273 -12.05128296 7.46510983 -12.04800415 6.66304684 C-10.56160661 0.33487273 -5.61784132 -0.07598329 0 0 Z " fill="#0000FF" transform="translate(242.54006958007813,259.4994287490845)"/>
<path d="M0 0 C0.7665619 -0.00551417 1.53312379 -0.01102833 2.32291484 -0.0167096 C4.90683266 -0.03036924 7.4897992 -0.01537338 10.07369995 -0.00063419 C11.93871549 -0.00452475 13.80372806 -0.01016322 15.6687336 -0.01740509 C20.80558993 -0.03221298 25.94214138 -0.0219469 31.07898808 -0.00766838 C36.61416727 0.0034073 42.14930249 -0.00848987 47.68447876 -0.01751041 C58.53258993 -0.03146815 69.38058496 -0.023868 80.22869062 -0.00883483 C92.85256726 0.0079956 105.47641473 0.00481876 118.10029912 0.00107109 C141.30011362 -0.00499001 164.49986845 0.01081287 187.69966367 0.03625872 C208.8873502 0.05937452 230.0749685 0.0647623 251.26266479 0.05452633 C256.68784584 0.05192441 262.11302688 0.04933942 267.53820801 0.04692841 C268.20606998 0.04663096 268.87393196 0.04633351 269.56203218 0.04602705 C287.25581119 0.0384156 304.94958536 0.04488033 322.64336205 0.05562443 C325.17887751 0.05715032 327.71439298 0.05867068 330.24990845 0.06018543 C331.49754349 0.06094325 332.74517853 0.06170106 334.03062069 0.06248184 C342.83732371 0.06723135 351.64401133 0.06536851 360.45071411 0.06112003 C371.17807948 0.05620135 381.90537418 0.06214202 392.63272333 0.08201433 C398.10960131 0.09190905 403.58637152 0.09696799 409.06325531 0.08912182 C414.07186528 0.08209312 419.08025723 0.08880345 424.08883834 0.10672545 C425.90573204 0.11078827 427.72264544 0.1097396 429.53953195 0.10320658 C431.99990593 0.09511347 434.4595351 0.10529823 436.91986084 0.12025452 C437.99012988 0.11014804 437.99012988 0.11014804 439.08202052 0.09983739 C442.16171791 0.13630708 444.20114987 0.35272281 446.89943886 1.89432949 C448.93819456 3.99285705 448.96595737 5.10213452 448.97750854 8.00032711 C448.99011719 8.90814434 449.00272583 9.81596157 449.01571655 10.75128841 C449.00357117 12.21853107 449.00357117 12.21853107 448.99118042 13.715415 C448.99500732 14.72270153 448.99883423 15.72998806 449.0027771 16.76779842 C449.00549984 18.89870356 448.99811342 21.02964191 448.98141479 23.16048336 C448.9600332 26.42239161 448.9811934 29.68209159 449.00680542 32.94393063 C449.00416177 35.01359695 448.99903603 37.0832619 448.99118042 39.152915 C448.99927734 40.12905254 449.00737427 41.10519009 449.01571655 42.11090755 C448.99680359 43.47736164 448.99680359 43.47736164 448.97750854 44.87142086 C448.97432617 45.67067486 448.9711438 46.46992886 448.96786499 47.29340267 C448.23972784 50.45743507 447.01949861 51.51387031 444.45993042 53.50057125 C441.80759265 53.89281467 439.5702532 54.03872151 436.91986084 54.00393581 C436.15329894 54.00974958 435.38673705 54.01556334 434.596946 54.02155328 C432.01303563 54.03622017 429.43006527 54.02223737 426.84616089 54.00850582 C424.98114471 54.0131121 423.11613216 54.01946317 421.25112724 54.0274148 C416.11427756 54.04416875 410.97772375 54.03583426 405.84087276 54.02346992 C400.30568843 54.01444651 394.77055618 54.02837567 389.23538208 54.03938961 C378.3872761 54.05720843 367.53928059 54.05331988 356.69117022 54.04173905 C347.87740704 54.03271821 339.06367491 54.03147487 330.24990845 54.03583431 C328.99714202 54.03644724 327.74437559 54.03706018 326.45364654 54.03769168 C323.90895159 54.03897054 321.36425665 54.04026739 318.81956172 54.04158205 C295.61974982 54.05267205 272.41999577 54.04115674 249.22019717 54.02021166 C228.0324978 54.00122861 206.84489458 54.00292709 185.65719604 54.02205563 C161.86361885 54.04346487 138.07008824 54.05189897 114.27649879 54.03960657 C111.74098334 54.03833233 109.20546787 54.03707485 106.66995239 54.03583431 C104.79849983 54.03490866 104.79849983 54.03490866 102.88924015 54.03396431 C94.08252924 54.03050559 85.27585237 54.03635098 76.46914673 54.04575253 C65.74176679 54.05695236 55.01450397 54.05397496 44.28713751 54.03262955 C38.81022791 54.02209198 33.33351383 54.01804331 27.85660553 54.03122616 C22.84794044 54.04309993 17.83965307 54.03667072 12.8310225 54.01531595 C11.01412845 54.01082852 9.19720283 54.01316376 7.38032889 54.0228191 C4.91975879 54.03489739 2.46050037 54.02259675 0 54.00393581 C-1.07026904 54.01798281 -1.07026904 54.01798281 -2.16215968 54.03231359 C-5.55395394 53.98052628 -7.26654367 53.71319142 -9.97957802 51.60426569 C-11.78892338 49.16509212 -12.04535483 47.98617379 -12.05764771 44.97908688 C-12.07025635 44.09136593 -12.08286499 43.20364498 -12.09585571 42.2890234 C-12.08775879 41.33789669 -12.07966187 40.38676998 -12.07131958 39.40682125 C-12.07514648 38.42314571 -12.07897339 37.43947018 -12.08291626 36.42598629 C-12.08563585 34.3481357 -12.0782714 32.2702509 -12.06155396 30.19246578 C-12.04014542 27.01183914 -12.06135446 23.83347138 -12.08694458 20.652915 C-12.08430131 18.63337876 -12.07917636 16.61384393 -12.07131958 14.59432125 C-12.0794165 13.64319454 -12.08751343 12.69206783 -12.09585571 11.7121191 C-12.08324707 10.82439816 -12.07063843 9.93667721 -12.05764771 9.02205563 C-12.05446533 8.24358273 -12.05128296 7.46510983 -12.04800415 6.66304684 C-10.56160661 0.33487273 -5.61784132 -0.07598329 0 0 Z M-9.54006958 4.50057125 C-9.84522221 6.50573247 -9.84522221 6.50573247 -9.79885864 8.82674313 C-9.80516296 9.72107052 -9.81146729 10.61539791 -9.81796265 11.53682613 C-9.81391418 12.50454952 -9.80986572 13.47227291 -9.80569458 14.46932125 C-9.80760803 15.46057003 -9.80952148 16.45181881 -9.81149292 17.47310543 C-9.81285543 19.57129323 -9.8091544 21.66948944 -9.80081177 23.76766109 C-9.79011329 26.98741671 -9.80070494 30.20661433 -9.81350708 33.4263525 C-9.8121855 35.46150999 -9.80962313 37.49666713 -9.80569458 39.53182125 C-9.80974304 40.49954464 -9.8137915 41.46726803 -9.81796265 42.46431637 C-9.81165833 43.35864376 -9.805354 44.25297115 -9.79885864 45.17439938 C-9.79726746 45.96334591 -9.79567627 46.75229244 -9.79403687 47.56514645 C-9.70878481 49.73792158 -9.70878481 49.73792158 -7.54006958 51.50057125 C-5.06989175 51.69751905 -2.71185636 51.76834008 -0.24050903 51.75225353 C0.52434437 51.75516041 1.28919777 51.7580673 2.07722855 51.76106226 C4.66711336 51.76842208 7.25676567 51.7613913 9.84664917 51.75453854 C11.7113609 51.75684061 13.57607173 51.76001542 15.44078064 51.76399302 C20.58593651 51.77238451 25.73101871 51.76819611 30.87617493 51.76202059 C36.41679396 51.7575148 41.95739989 51.7644705 47.49801636 51.76998043 C58.36040425 51.7788962 69.22276458 51.77694273 80.08515358 51.77115515 C88.90946301 51.76664722 97.7337647 51.76602198 106.55807495 51.76820278 C107.81168981 51.76850925 109.06530466 51.76881571 110.35690784 51.76913147 C112.90321732 51.76977089 115.44952679 51.77041931 117.99583626 51.77107665 C141.2176157 51.77662342 164.43937897 51.77086107 187.66115499 51.76039146 C208.8753382 51.75089972 230.08949741 51.75174896 251.30368042 51.76131344 C275.11918974 51.77201476 298.93468582 51.77623696 322.75019836 51.77008891 C325.2873942 51.76945178 327.82459005 51.76882304 330.36178589 51.76820278 C331.61029233 51.76789423 332.85879877 51.76758568 334.14513874 51.76726778 C342.963777 51.76553743 351.78240676 51.76846324 360.6010437 51.77316189 C371.34093991 51.77875815 382.08080686 51.77728081 392.82069969 51.7666004 C398.30539943 51.76132672 403.79005032 51.75931564 409.27474976 51.7658987 C414.28822141 51.77182538 419.30159858 51.76863781 424.31506157 51.7579436 C426.13602034 51.75569554 427.95698697 51.75687698 429.77794075 51.76169518 C432.23886658 51.76771099 434.6994618 51.76160639 437.16036987 51.75225353 C438.2393775 51.75927703 438.2393775 51.75927703 439.34018326 51.76644242 C443.34637686 51.84473711 443.34637686 51.84473711 446.45993042 49.50057125 C446.77191779 47.49572645 446.77191779 47.49572645 446.73458862 45.17439938 C446.74412064 44.28007198 446.75365265 43.38574459 446.76347351 42.46431637 C446.7625621 41.49659298 446.7616507 40.52886959 446.76071167 39.53182125 C446.7649968 38.54057247 446.76928192 37.54932369 446.7736969 36.52803707 C446.77944626 34.42985963 446.77993602 32.33166225 446.77560425 30.23348141 C446.77244318 27.01357395 446.79590002 23.79458382 446.82125854 20.57479 C446.82353126 18.53963492 446.82423516 16.50447735 446.82321167 14.46932125 C446.83702629 13.01773617 446.83702629 13.01773617 446.85112 11.53682613 C446.8448912 10.64249874 446.83866241 9.74817135 446.83224487 8.82674313 C446.8328743 8.03779659 446.83350372 7.24885006 446.83415222 6.43599606 C446.71065903 5.79730587 446.58716583 5.15861568 446.45993042 4.50057125 C442.8425875 2.0890093 440.2303871 2.22153614 436.05293941 2.24888897 C435.28862054 2.24598209 434.52430167 2.24307521 433.73682162 2.24008024 C431.15477622 2.23273404 428.57296502 2.23974497 425.99092102 2.24660397 C424.12947103 2.24430136 422.26802195 2.24112619 420.40657479 2.23714948 C415.27507975 2.22876538 410.14365866 2.23294307 405.01216328 2.23912191 C399.48451355 2.24363065 393.9568769 2.23667054 388.42922974 2.23116207 C377.5943845 2.22224967 366.75956691 2.22419823 355.92472058 2.22998735 C347.12284162 2.23449636 338.32097043 2.23512006 329.51909065 2.23293972 C328.26838665 2.23263325 327.01768265 2.23232679 325.72907852 2.23201104 C323.18864758 2.23137161 320.64821664 2.23072319 318.10778571 2.23006585 C294.94381772 2.22452008 271.77986421 2.23027992 248.61589955 2.24075105 C227.45525917 2.25024382 206.29464286 2.24939244 185.13400269 2.23982906 C161.37598532 2.22912779 137.61797962 2.22490542 113.85995919 2.23105359 C111.3289576 2.23169072 108.79795601 2.23231946 106.26695442 2.23293972 C105.02150708 2.23324827 103.77605974 2.23355682 102.49287156 2.23387472 C93.69626308 2.235605 84.89966312 2.23267944 76.10305595 2.22798061 C65.39063231 2.22238445 54.678238 2.22386153 43.96581774 2.2345421 C38.49528787 2.23981575 33.02480698 2.24182691 27.55427742 2.2352438 C22.55379854 2.22931712 17.55341439 2.23250469 12.55294419 2.2431989 C10.73672592 2.24544694 8.92049976 2.24426555 7.10428648 2.23944733 C4.649768 2.23343146 2.19558097 2.23953615 -0.25891972 2.24888897 C-1.33509205 2.24186547 -1.33509205 2.24186547 -2.43300524 2.23470008 C-6.43241506 2.1576038 -6.43241506 2.1576038 -9.54006958 4.50057125 Z " fill="#800080" transform="translate(242.54006958007813,259.4994287490845)"/>
<path d="M0 0 C2.97240956 1.75642383 5.32122466 3.14789082 7.75 5.625 C8.21171545 9.14785252 8.23460481 12.33836989 8.11132812 15.86914062 C8.06446796 18.24482707 8.06446796 18.24482707 8.75 21.625 C11.64757183 23.71357782 11.64757183 23.71357782 14.75 24.625 C13.265 25.12 13.265 25.12 11.75 25.625 C10.43 24.965 9.11 24.305 7.75 23.625 C7.75 29.235 7.75 34.845 7.75 40.625 C7.42 40.625 7.09 40.625 6.75 40.625 C6.42 30.065 6.09 19.505 5.75 8.625 C-1.45140323 3.85293638 -1.45140323 3.85293638 -6.19360352 5.91308594 C-8.97536695 7.89429679 -9.22341002 8.52326825 -10.13647461 12.01660156 C-10.14171143 13.3362793 -10.14694824 14.65595703 -10.15234375 16.015625 C-10.16463516 16.72023865 -10.17692657 17.42485229 -10.18959045 18.15081787 C-10.22129283 20.39327512 -10.20505757 22.63244085 -10.1875 24.875 C-10.20061102 26.39846803 -10.21685191 27.92191255 -10.23632812 29.4453125 C-10.27715389 33.17228803 -10.27501251 36.89781898 -10.25 40.625 C-10.91 40.625 -11.57 40.625 -12.25 40.625 C-12.25 35.015 -12.25 29.405 -12.25 23.625 C-20.83 23.625 -29.41 23.625 -38.25 23.625 C-38.25 29.235 -38.25 34.845 -38.25 40.625 C-38.91 40.625 -39.57 40.625 -40.25 40.625 C-40.25 34.685 -40.25 28.745 -40.25 22.625 C-44.21 22.625 -48.17 22.625 -52.25 22.625 C-48.97072355 16.0664471 -45.02811746 9.91423477 -38.25 6.625 C-32.74682311 5.60045793 -27.25674566 5.65419179 -21.6796875 5.89770508 C-14.58799687 6.13539477 -10.64641955 5.46330877 -5.08569336 0.89648438 C-3.25 -0.375 -3.25 -0.375 0 0 Z " fill="#A3A6A9" transform="translate(203.25,262.375)"/>
<path d="M0 0 C4.31724549 2.34168616 7.10628496 5.48150782 9 10 C9.6875726 16.07355798 8.37234384 19.12883667 5 24 C1.78041979 26.9268911 -0.89130036 27.89339427 -5.25 28.3125 C-10.72445427 27.85629548 -14.1097328 26.01221992 -17.9375 21.9375 C-19.62527136 17.27130859 -19.88634403 12.88536078 -19 8 C-14.51558373 0.15569998 -8.67740114 -1.27890072 0 0 Z " fill="#DEDEDF" transform="translate(638,273)"/>
<path d="M0 0 C3.3 0 6.6 0 10 0 C12.5078125 2.5546875 12.5078125 2.5546875 14.125 5.875 C14.68445313 6.96554687 15.24390625 8.05609375 15.8203125 9.1796875 C17 12 17 12 17 14 C17.66 14 18.32 14 19 14 C19.226875 13.175 19.45375 12.35 19.6875 11.5 C21.42252393 6.87326953 22.80796336 3.85704428 26 0 C29.3 0 32.6 0 36 0 C36 8.58 36 17.16 36 26 C33.03 26 30.06 26 27 26 C26.67 23.36 26.34 20.72 26 18 C25.72027344 18.5775 25.44054687 19.155 25.15234375 19.75 C24.55099609 20.86375 24.55099609 20.86375 23.9375 22 C23.36322266 23.11375 23.36322266 23.11375 22.77734375 24.25 C21 26 21 26 17.31640625 26.25 C16.22199219 26.1675 15.12757813 26.085 14 26 C12.65010869 23.80040031 11.3204828 21.592162 10 19.375 C9.6184375 18.75753906 9.236875 18.14007813 8.84375 17.50390625 C6.48586235 13.50391828 5.52969754 10.7765094 6 6 C8.95814719 8.61227152 10.71876108 11.66570307 12.6875 15.0625 C13.31011719 16.12597656 13.93273437 17.18945312 14.57421875 18.28515625 C16 21 16 21 16 23 C17.32 23 18.64 23 20 23 C20.25652344 22.30519531 20.51304687 21.61039062 20.77734375 20.89453125 C22.1442106 17.65859407 23.78937044 14.71921839 25.5625 11.6875 C26.18253906 10.61886719 26.80257813 9.55023438 27.44140625 8.44921875 C27.95574219 7.64097656 28.47007812 6.83273437 29 6 C29.33 6 29.66 6 30 6 C30 11.61 30 17.22 30 23 C30.99 23 31.98 23 33 23 C33 16.07 33 9.14 33 2 C28.21713117 2.43121774 28.21713117 2.43121774 26.60620117 4.58227539 C26.25533447 5.24735107 25.90446777 5.91242676 25.54296875 6.59765625 C25.15302734 7.31630859 24.76308594 8.03496094 24.36132812 8.77539062 C23.97396484 9.53013672 23.58660156 10.28488281 23.1875 11.0625 C22.78080078 11.82111328 22.37410156 12.57972656 21.95507812 13.36132812 C20.95464351 15.23272934 19.97525608 17.11535481 19 19 C18.34 19 17.68 19 17 19 C16.40832031 17.85660156 15.81664062 16.71320313 15.20703125 15.53515625 C14.40975842 14.04378707 13.61153136 12.55292775 12.8125 11.0625 C12.42513672 10.30775391 12.03777344 9.55300781 11.63867188 8.77539062 C11.05375977 7.69741211 11.05375977 7.69741211 10.45703125 6.59765625 C9.9307312 5.60004272 9.9307312 5.60004272 9.39379883 4.58227539 C7.78286883 2.43121774 7.78286883 2.43121774 3 2 C3 8.93 3 15.86 3 23 C3.99 23 4.98 23 6 23 C6 21.35 6 19.7 6 18 C7.5 19.1875 7.5 19.1875 9 21 C9.1875 23.6875 9.1875 23.6875 9 26 C6.03 26 3.06 26 0 26 C0 17.42 0 8.84 0 0 Z " fill="#D9D9DA" transform="translate(243,274)"/>
<path d="M0 0 C9.24 0 18.48 0 28 0 C28 2.64 28 5.28 28 8 C21.73 8 15.46 8 9 8 C9 8.99 9 9.98 9 11 C13.95 11 18.9 11 24 11 C24 11.99 24 12.98 24 14 C18.06 14 12.12 14 6 14 C6 11.03 6 8.06 6 5 C12.27 5 18.54 5 25 5 C25 4.34 25 3.68 25 3 C17.74 3 10.48 3 3 3 C3 9.6 3 16.2 3 23 C10.59 23 18.18 23 26 23 C26 22.01 26 21.02 26 20 C19.4 20 12.8 20 6 20 C6 19.01 6 18.02 6 17 C13.59 17 21.18 17 29 17 C29 19.97 29 22.94 29 26 C19.43 26 9.86 26 0 26 C0 17.42 0 8.84 0 0 Z " fill="#DDDEDF" transform="translate(537,274)"/>
<path d="M0 0 C3.91641711 -0.11618764 7.83239101 -0.18724654 11.75 -0.25 C13.41675781 -0.30027344 13.41675781 -0.30027344 15.1171875 -0.3515625 C16.18710937 -0.36445313 17.25703125 -0.37734375 18.359375 -0.390625 C19.34389648 -0.41157227 20.32841797 -0.43251953 21.34277344 -0.45410156 C24.75178266 0.12847443 25.90513567 1.30068383 28 4 C28.57495192 7.44971151 28.50453375 9.19390585 26.640625 12.171875 C22.44877649 15.07392397 18.21244624 14.4218024 13.25 14.25 C11.77466797 14.22292969 11.77466797 14.22292969 10.26953125 14.1953125 C7.84536217 14.14824126 5.42317941 14.08250742 3 14 C3 16.64 3 19.28 3 22 C3.66 22 4.32 22 5 22 C5 20.35 5 18.7 5 17 C6.93559313 16.86495862 8.873872 16.76798871 10.8125 16.6875 C11.89144531 16.62949219 12.97039063 16.57148438 14.08203125 16.51171875 C15.04496094 16.67285156 16.00789062 16.83398438 17 17 C18.69921875 19.45703125 18.69921875 19.45703125 20 22 C20.99 22.33 21.98 22.66 23 23 C22.01 21.02 21.02 19.04 20 17 C21.32 17 22.64 17 24 17 C28 23.75 28 23.75 28 26 C24.62253012 26.28515224 21.36595977 26.46048961 18 26 C16.3125 23.5625 16.3125 23.5625 15 21 C11.40080577 20.10407917 11.40080577 20.10407917 8 20 C8 21.98 8 23.96 8 26 C5.36 26 2.72 26 0 26 C0 21.05 0 16.1 0 11 C7.59 10.67 15.18 10.34 23 10 C24.06537205 5.52297636 24.06537205 5.52297636 24 3 C17.07 3 10.14 3 3 3 C3 3.66 3 4.32 3 5 C9.27 5 15.54 5 22 5 C22 5.99 22 6.98 22 8 C14.74 8 7.48 8 0 8 C0 5.36 0 2.72 0 0 Z " fill="#DADADB" transform="translate(571,274)"/>
<path d="M0 0 C3.91641711 -0.11618764 7.83239101 -0.18724654 11.75 -0.25 C13.41675781 -0.30027344 13.41675781 -0.30027344 15.1171875 -0.3515625 C16.18710937 -0.36445313 17.25703125 -0.37734375 18.359375 -0.390625 C19.34389648 -0.41157227 20.32841797 -0.43251953 21.34277344 -0.45410156 C24.75178266 0.12847443 25.90513567 1.30068383 28 4 C28.57495192 7.44971151 28.50453375 9.19390585 26.640625 12.171875 C22.44877649 15.07392397 18.21244624 14.4218024 13.25 14.25 C11.77466797 14.22292969 11.77466797 14.22292969 10.26953125 14.1953125 C7.84593659 14.14825241 5.42284375 14.07651086 3 14 C3 16.97 3 19.94 3 23 C3.66 23 4.32 23 5 23 C5 21.02 5 19.04 5 17 C6.93559313 16.86495862 8.873872 16.76798871 10.8125 16.6875 C11.89144531 16.62949219 12.97039063 16.57148438 14.08203125 16.51171875 C15.04496094 16.67285156 16.00789062 16.83398438 17 17 C18.76171875 19.51953125 18.76171875 19.51953125 20 22 C20.66 22 21.32 22 22 22 C21.34 20.35 20.68 18.7 20 17 C21.75 17.125 21.75 17.125 24 18 C28 23.22222222 28 23.22222222 28 26 C24.62253012 26.28515224 21.36595977 26.46048961 18 26 C16.3125 23.5625 16.3125 23.5625 15 21 C11.40080577 20.10407917 11.40080577 20.10407917 8 20 C8 21.98 8 23.96 8 26 C5.36 26 2.72 26 0 26 C0 21.05 0 16.1 0 11 C7.59 10.67 15.18 10.34 23 10 C24.06537205 5.52297636 24.06537205 5.52297636 24 3 C17.07 3 10.14 3 3 3 C3 3.66 3 4.32 3 5 C8.94 5 14.88 5 21 5 C21.33 5.99 21.66 6.98 22 8 C14.74 8 7.48 8 0 8 C0 5.36 0 2.72 0 0 Z " fill="#DDDDDE" transform="translate(650,274)"/>
<path d="M0 0 C9 0 9 0 11.84765625 2.1875 C12.57855469 3.115625 13.30945313 4.04375 14.0625 5 C14.81660156 5.928125 15.57070313 6.85625 16.34765625 7.8125 C17.16556641 8.8953125 17.16556641 8.8953125 18 10 C18.33 6.7 18.66 3.4 19 0 C21.97 0 24.94 0 28 0 C28 8.58 28 17.16 28 26 C19 26 19 26 16.89257812 24.73071289 C16.44333984 24.1505542 15.99410156 23.57039551 15.53125 22.97265625 C15.02335937 22.34552734 14.51546875 21.71839844 13.9921875 21.07226562 C13.49976563 20.40904297 13.00734375 19.74582031 12.5 19.0625 C11.97664063 18.40314453 11.45328125 17.74378906 10.9140625 17.06445312 C9.58962586 15.39175142 8.29252165 13.69748379 7 12 C6.67 11.67 6.34 11.34 6 11 C5.95936168 9.33382885 5.957279 7.66611905 6 6 C10.44366746 10.35622499 14.51890099 14.97093673 18.59765625 19.671875 C20.9525633 22.34300198 20.9525633 22.34300198 25 23 C25 16.07 25 9.14 25 2 C24.01 2 23.02 2 22 2 C22 7.61 22 13.22 22 19 C17.1269283 15.10154264 13.98810989 11.29053339 10.28125 6.36328125 C7.94659786 3.49592017 7.94659786 3.49592017 3 3 C3 9.27 3 15.54 3 22 C3.66 22 4.32 22 5 22 C5 19.36 5 16.72 5 14 C7 14.9375 7 14.9375 9 17 C9.37109201 20.07788079 9.18069582 22.88299702 9 26 C6.03 26 3.06 26 0 26 C0 17.42 0 8.84 0 0 Z " fill="#D9DADB" transform="translate(470,274)"/>
<path d="M0 0 C4.0829596 -0.14518182 8.16525641 -0.23403347 12.25 -0.3125 C13.40886719 -0.35439453 14.56773437 -0.39628906 15.76171875 -0.43945312 C24.32138336 -0.5631477 24.32138336 -0.5631477 27.80078125 2.32421875 C29.33499007 5.74745342 29.15538821 7.4568095 28 11 C26.76049805 12.66137695 26.76049805 12.66137695 25 14 C22.63989258 14.34057617 22.63989258 14.34057617 19.89453125 14.29296875 C18.91162109 14.28330078 17.92871094 14.27363281 16.91601562 14.26367188 C15.89185547 14.23853516 14.86769531 14.21339844 13.8125 14.1875 C12.77673828 14.17396484 11.74097656 14.16042969 10.67382812 14.14648438 C8.11536301 14.11111389 5.5579422 14.06175544 3 14 C3 16.97 3 19.94 3 23 C3.99 23 4.98 23 6 23 C6 21.02 6 19.04 6 17 C7.76949095 16.89184775 9.54087487 16.81433917 11.3125 16.75 C12.29863281 16.70359375 13.28476562 16.6571875 14.30078125 16.609375 C17 17 17 17 18.85546875 18.890625 C20 21 20 21 20 23 C20.99 23 21.98 23 23 23 C22.34 21.02 21.68 19.04 21 17 C22.859375 17.24609375 22.859375 17.24609375 25 18 C26.265625 19.84765625 26.265625 19.84765625 27.25 22.0625 C27.75273437 23.16271484 27.75273437 23.16271484 28.265625 24.28515625 C28.50796875 24.85105469 28.7503125 25.41695313 29 26 C27.3973218 26.10824843 25.79254252 26.18570645 24.1875 26.25 C23.29417969 26.29640625 22.40085937 26.3428125 21.48046875 26.390625 C19 26 19 26 17.17578125 24.109375 C16 22 16 22 16 20 C13.69 20 11.38 20 9 20 C9 21.98 9 23.96 9 26 C6.03 26 3.06 26 0 26 C0 21.05 0 16.1 0 11 C7.92 10.67 15.84 10.34 24 10 C24.33 8.35 24.66 6.7 25 5 C23.38219843 3.38219843 21.54364482 3.77727853 19.30859375 3.68359375 C18.36435547 3.64169922 17.42011719 3.59980469 16.44726562 3.55664062 C15.45404297 3.51732422 14.46082031 3.47800781 13.4375 3.4375 C12.44041016 3.39431641 11.44332031 3.35113281 10.41601562 3.30664062 C7.9441585 3.20019702 5.4721969 3.09818072 3 3 C3 3.99 3 4.98 3 6 C9.6 6 16.2 6 23 6 C23 6.66 23 7.32 23 8 C15.41 8 7.82 8 0 8 C0 5.36 0 2.72 0 0 Z " fill="#DDDEDE" transform="translate(317,274)"/>
<path d="M0 0 C1.11503906 0.01289063 2.23007813 0.02578125 3.37890625 0.0390625 C5.11720703 0.08933594 5.11720703 0.08933594 6.890625 0.140625 C8.65212891 0.16769531 8.65212891 0.16769531 10.44921875 0.1953125 C13.34670257 0.24242606 16.24376695 0.31416834 19.140625 0.390625 C19.140625 4.020625 19.140625 7.650625 19.140625 11.390625 C7.590625 11.390625 -3.959375 11.390625 -15.859375 11.390625 C-13.879375 9.080625 -11.899375 6.770625 -9.859375 4.390625 C-9.19647461 3.59430664 -8.53357422 2.79798828 -7.85058594 1.97753906 C-5.14733767 -0.17683977 -3.42444426 -0.06988662 0 0 Z " fill="#31373F" transform="translate(171.859375,269.609375)"/>
<path d="M0 0 C2.64 0 5.28 0 8 0 C8.04898437 0.90363281 8.09796875 1.80726563 8.1484375 2.73828125 C8.22320312 3.91777344 8.29796875 5.09726562 8.375 6.3125 C8.44460938 7.48425781 8.51421875 8.65601563 8.5859375 9.86328125 C8.78613747 13.15699887 8.78613747 13.15699887 11 16 C14.465 15.505 14.465 15.505 18 15 C18.33 10.05 18.66 5.1 19 0 C19.99 0 20.98 0 22 0 C22.10826289 2.4178712 22.18739789 4.83087556 22.25 7.25 C22.30027344 8.27287109 22.30027344 8.27287109 22.3515625 9.31640625 C22.41949729 12.81504793 22.29299486 14.62467601 20.109375 17.421875 C16.60504058 20.04363631 14.39450983 20.60316802 10 20 C7.3565875 17.87377691 6.30516682 16.98888853 5 14 C4.5982257 10.29248782 4.7027353 6.71250586 5 3 C4.34 3 3.68 3 3 3 C2.96239349 11.55740318 2.96239349 11.55740318 6.125 19.25 C9.63092418 21.38404081 11.89071539 22 16 22 C19.45727354 20.82583163 21.41027283 20.12843989 23.12890625 16.83984375 C24.17878421 13.41714744 24.4246985 10.25954341 24.625 6.6875 C24.69976562 5.43324219 24.77453125 4.17898438 24.8515625 2.88671875 C24.90054687 1.93410156 24.94953125 0.98148437 25 0 C25.99 0 26.98 0 28 0 C28.75719513 16.34279498 28.75719513 16.34279498 24 22 C20.13493423 25.63081936 15.74326927 25.56171988 10.6640625 25.41796875 C6.38244765 24.74621979 4.82713517 23.26207904 2 20 C-0.20696837 15.78190346 -0.24082217 11.84266046 -0.125 7.1875 C-0.11597656 6.49462891 -0.10695313 5.80175781 -0.09765625 5.08789062 C-0.07426157 3.39177605 -0.03839641 1.69584129 0 0 Z " fill="#DDDEDE" transform="translate(284,274)"/>
<path d="M0 0 C0.99 0.33 1.98 0.66 3 1 C-0.96 7.93 -4.92 14.86 -9 22 C-8.01 22.33 -7.02 22.66 -6 23 C-5.75507813 22.16210938 -5.51015625 21.32421875 -5.2578125 20.4609375 C-3.838539 16.55573153 -1.98142234 13.19028729 0.125 9.625 C0.49753906 8.98433594 0.87007813 8.34367187 1.25390625 7.68359375 C2.16434002 6.11951523 3.08148191 4.55934466 4 3 C4.66 3 5.32 3 6 3 C8.00695291 6.45434314 10.00436779 9.9141063 12 13.375 C12.57234375 14.35984375 13.1446875 15.3446875 13.734375 16.359375 C14.27578125 17.30039062 14.8171875 18.24140625 15.375 19.2109375 C15.87773437 20.08024902 16.38046875 20.94956055 16.8984375 21.84521484 C18 24 18 24 18 26 C14.7 26 11.4 26 8 26 C4 19.5 4 19.5 4 15 C4.66 15 5.32 15 6 15 C6.94401042 16.79036458 7.88802083 18.58072917 8.83203125 20.37109375 C9.99019799 22.32267987 9.99019799 22.32267987 13 23 C12.24203125 21.73542969 12.24203125 21.73542969 11.46875 20.4453125 C10.8190625 19.34960938 10.169375 18.25390625 9.5 17.125 C8.8503125 16.03445313 8.200625 14.94390625 7.53125 13.8203125 C6 11 6 11 6 9 C5.34 9 4.68 9 4 9 C3.731875 9.69480469 3.46375 10.38960938 3.1875 11.10546875 C0.99666441 16.44563051 -1.20344555 21.59709929 -5 26 C-8.53154244 27.02296499 -11.43366863 26.77497744 -15 26 C-13.68548454 22.50136058 -12.1445897 19.37030652 -10.21484375 16.171875 C-9.68439453 15.29015625 -9.15394531 14.4084375 -8.60742188 13.5 C-8.05634766 12.5925 -7.50527344 11.685 -6.9375 10.75 C-6.38255859 9.82703125 -5.82761719 8.9040625 -5.25585938 7.953125 C-1.1474084 1.1474084 -1.1474084 1.1474084 0 0 Z " fill="#DDDEDE" transform="translate(366,274)"/>
<path d="M0 0 C9.24 0 18.48 0 28 0 C28 2.64 28 5.28 28 8 C25.69 8 23.38 8 21 8 C21 7.01 21 6.02 21 5 C22.32 5 23.64 5 25 5 C25 4.34 25 3.68 25 3 C17.74 3 10.48 3 3 3 C3 3.66 3 4.32 3 5 C5.97 5 8.94 5 12 5 C12 10.94 12 16.88 12 23 C12.99 23 13.98 23 15 23 C15 17.06 15 11.12 15 5 C15.99 5 16.98 5 18 5 C18 11.93 18 18.86 18 26 C15.03 26 12.06 26 9 26 C9 20.06 9 14.12 9 8 C6.03 8 3.06 8 0 8 C0 5.36 0 2.72 0 0 Z " fill="#DADBDC" transform="translate(504,274)"/>
<path d="M0 0 C2.64 0 5.28 0 8 0 C8 4.62 8 9.24 8 14 C7.01 14 6.02 14 5 14 C5 10.04 5 6.08 5 2 C4.34 2 3.68 2 3 2 C3 6.95 3 11.9 3 17 C11.25 17 19.5 17 28 17 C28 19.97 28 22.94 28 26 C18.76 26 9.52 26 0 26 C0 25.01 0 24.02 0 23 C8.25 23 16.5 23 25 23 C25 22.01 25 21.02 25 20 C16.75 20 8.5 20 0 20 C0 13.4 0 6.8 0 0 Z " fill="#E1E1E2" transform="translate(390,274)"/>
<path d="M0 0 C4.31724549 2.34168616 7.10628496 5.48150782 9 10 C9.6875726 16.07355798 8.37234384 19.12883667 5 24 C1.78041979 26.9268911 -0.89130036 27.89339427 -5.25 28.3125 C-10.72445427 27.85629548 -14.1097328 26.01221992 -17.9375 21.9375 C-19.62527136 17.27130859 -19.88634403 12.88536078 -19 8 C-14.51558373 0.15569998 -8.67740114 -1.27890072 0 0 Z M-15.9375 7.6875 C-17.69158458 11.5052135 -17.13989962 15.02805163 -16 19 C-13.97741225 21.94194583 -12.52532752 23.49783456 -9.1015625 24.625 C-5.45939032 25.29482477 -3.23685693 25.08044198 0.3125 23.875 C3.34613174 21.75851274 4.60126781 20.41912313 6 17 C6.48379406 13.67391587 6.73293508 11.27391097 5.015625 8.2890625 C1.98364489 4.45229755 -0.59494261 2.3797459 -5.375 1.625 C-9.7958889 2.25655556 -12.64742442 4.8219503 -15.9375 7.6875 Z " fill="#DDDDDE" transform="translate(638,273)"/>
<path d="M0 0 C2.91128986 1.85854665 5.42922037 3.85844074 7 7 C7.40335728 11.19491568 7.24198067 13.5250009 5.3125 17.3125 C2.81094957 20.21970726 1.72680887 21.23769819 -2 22 C-6.42324991 22.14384553 -9.24747216 21.51235938 -12.9375 19 C-15.64277638 15.06505254 -16.5793628 11.76924736 -16 7 C-14.38370695 3.7810535 -11.97248008 1.74556806 -9.125 -0.4375 C-5.74455454 -1.3323238 -3.37206503 -0.87208578 0 0 Z M-9.875 3.5 C-12.60878514 6.71621781 -12.92526438 8.81480553 -13 13 C-11.89791992 16.39808026 -11.07902124 16.94731917 -8 19 C-4.48021449 19.3199805 -1.90298219 19.38020303 1.375 18 C3.86573855 14.93447563 4.3041888 11.90122132 4 8 C2.67838573 4.93126102 2.67838573 4.93126102 0 3 C-4.11453459 1.72823476 -6.02851705 1.49313933 -9.875 3.5 Z " fill="#53585F" transform="translate(637,276)"/>
<path d="M0 0 C3.91641711 -0.11618764 7.83239101 -0.18724654 11.75 -0.25 C13.41675781 -0.30027344 13.41675781 -0.30027344 15.1171875 -0.3515625 C16.18710937 -0.36445313 17.25703125 -0.37734375 18.359375 -0.390625 C19.34389648 -0.41157227 20.32841797 -0.43251953 21.34277344 -0.45410156 C24.75679321 0.1293307 25.92190781 1.27761381 28 4 C28.25 7.25 28.25 7.25 28 10 C27.01 9.67 26.02 9.34 25 9 C24.67 7.02 24.34 5.04 24 3 C17.07 3 10.14 3 3 3 C3 3.66 3 4.32 3 5 C8.94 5 14.88 5 21 5 C21.33 5.99 21.66 6.98 22 8 C14.74 8 7.48 8 0 8 C0 5.36 0 2.72 0 0 Z " fill="#D7D7D8" transform="translate(650,274)"/>
<path d="M0 0 C3.63 0 7.26 0 11 0 C11 4.62 11 9.24 11 14 C8.03 14 5.06 14 2 14 C2 15.32 2 16.64 2 18 C1.34 18 0.68 18 0 18 C0 12.06 0 6.12 0 0 Z " fill="#9FA1A4" transform="translate(152,285)"/>
<path d="M0 0 C2.97 0 5.94 0 9 0 C9 6.6 9 13.2 9 20 C8.01 20 7.02 20 6 20 C6 14.06 6 8.12 6 2 C5.01 2 4.02 2 3 2 C3 8.93 3 15.86 3 23 C4.98 23 6.96 23 9 23 C9 23.99 9 24.98 9 26 C6.03 26 3.06 26 0 26 C0 17.42 0 8.84 0 0 Z " fill="#DDDDDE" transform="translate(456,274)"/>
<path d="M0 0 C2.97 0 5.94 0 9 0 C9 6.6 9 13.2 9 20 C8.01 20 7.02 20 6 20 C6 14.06 6 8.12 6 2 C5.01 2 4.02 2 3 2 C3 8.93 3 15.86 3 23 C4.98 23 6.96 23 9 23 C9 23.99 9 24.98 9 26 C6.03 26 3.06 26 0 26 C0 17.42 0 8.84 0 0 Z " fill="#DBDCDD" transform="translate(423,274)"/>
<path d="M0 0 C2.64 0 5.28 0 8 0 C8 6.6 8 13.2 8 20 C7.01 20 6.02 20 5 20 C5 14.06 5 8.12 5 2 C4.01 2 3.02 2 2 2 C2 8.93 2 15.86 2 23 C3.98 23 5.96 23 8 23 C8 23.99 8 24.98 8 26 C5.36 26 2.72 26 0 26 C0 17.42 0 8.84 0 0 Z " fill="#E4E4E5" transform="translate(605,274)"/>
<path d="M0 0 C1.875 1.0625 1.875 1.0625 3 3 C2.6875 6.6875 2.6875 6.6875 2 10 C-4.42548263 11.33359073 -4.42548263 11.33359073 -6.9375 9.875 C-8.36066991 7.36352369 -8.42674516 5.84496772 -8 3 C-5.85607122 -0.27231235 -3.76836426 -0.56525464 0 0 Z " fill="#4B5057" transform="translate(635,281)"/>
<path d="M0 0 C1.65 0 3.3 0 5 0 C5 6.93 5 13.86 5 21 C4.01 21 3.02 21 2 21 C1.67 15.72 1.34 10.44 1 5 C0.34 5.66 -0.32 6.32 -1 7 C-1.66 7 -2.32 7 -3 7 C-1.125 1.125 -1.125 1.125 0 0 Z " fill="#4F535B" transform="translate(271,276)"/>
<path d="M0 0 C2.97 0 5.94 0 9 0 C9 2.97 9 5.94 9 9 C6.03 9 3.06 9 0 9 C0 6.03 0 3.06 0 0 Z " fill="#D5D6D7" transform="translate(168,288)"/>
<path d="M0 0 C2.64 0 5.28 0 8 0 C8 2.97 8 5.94 8 9 C5.36 9 2.72 9 0 9 C0 6.03 0 3.06 0 0 Z " fill="#E2E3E3" transform="translate(197,288)"/>
<path d="M0 0 C2.64 0 5.28 0 8 0 C8 2.97 8 5.94 8 9 C5.36 9 2.72 9 0 9 C0 6.03 0 3.06 0 0 Z " fill="#E2E3E3" transform="translate(181,288)"/>
<path d="M0 0 C2.97 0 5.94 0 9 0 C9 2.64 9 5.28 9 8 C6.03 8 3.06 8 0 8 C0 5.36 0 2.72 0 0 Z " fill="#363B44" transform="translate(154,285)"/>
<path d="M0 0 C0.99 0.33 1.98 0.66 3 1 C2.34 1 1.68 1 1 1 C0.75507813 1.83789062 0.51015625 2.67578125 0.2578125 3.5390625 C-1.161461 7.44426847 -3.01857766 10.80971271 -5.125 14.375 C-5.49753906 15.01566406 -5.87007813 15.65632813 -6.25390625 16.31640625 C-7.16434002 17.88048477 -8.08148191 19.44065534 -9 21 C-10.32 20.67 -11.64 20.34 -13 20 C-11.21696437 16.84919889 -9.42215112 13.70526803 -7.625 10.5625 C-7.11710937 9.66466797 -6.60921875 8.76683594 -6.0859375 7.84179688 C-5.59609375 6.98779297 -5.10625 6.13378906 -4.6015625 5.25390625 C-4.15119629 4.46314697 -3.70083008 3.6723877 -3.23681641 2.85766602 C-2 1 -2 1 0 0 Z " fill="#4A4F57" transform="translate(369,276)"/>
<path d="M0 0 C2.64 0 5.28 0 8 0 C8 2.64 8 5.28 8 8 C5.36 8 2.72 8 0 8 C0 5.36 0 2.72 0 0 Z " fill="#EDEDED" transform="translate(197,274)"/>
<path d="M0 0 C1.1446875 0.2475 1.1446875 0.2475 2.3125 0.5 C5.03596236 1.09145396 5.03596236 1.09145396 8 1 C9.98966525 2.98966525 9.1418744 7.11345039 9.1875 9.875 C9.17686523 10.97521484 9.17686523 10.97521484 9.16601562 12.09765625 C9.17793622 14.53088494 9.17793622 14.53088494 10 18 C12.90706106 20.09882706 12.90706106 20.09882706 16 21 C15.01 21.33 14.02 21.66 13 22 C11.68 21.34 10.36 20.68 9 20 C9 25.61 9 31.22 9 37 C8.67 37 8.34 37 8 37 C8.00636475 36.05157227 8.01272949 35.10314453 8.01928711 34.12597656 C8.02641757 30.59877363 8.00236413 27.0746245 7.95727539 23.54785156 C7.94415391 22.0231683 7.94338505 20.49832581 7.95532227 18.97363281 C7.97035305 16.77770727 7.94064359 14.58618935 7.90234375 12.390625 C7.89710693 11.07094727 7.89187012 9.75126953 7.88647461 8.39160156 C7.36035192 5.03422233 7.36035192 5.03422233 5.38162231 3.65319824 C3.23903152 2.37657375 3.23903152 2.37657375 0 1 C0 0.67 0 0.34 0 0 Z " fill="#C8C9CA" transform="translate(202,266)"/>
<path d="M0 0 C0.99 0 1.98 0 3 0 C3.10826289 2.4178712 3.18739789 4.83087556 3.25 7.25 C3.28351563 7.93191406 3.31703125 8.61382812 3.3515625 9.31640625 C3.41864429 12.77111858 3.28073677 14.62808376 1.171875 17.421875 C-1 19 -1 19 -4 20 C-3.625 18.0625 -3.625 18.0625 -3 16 C-2.34 15.67 -1.68 15.34 -1 15 C-0.68758629 12.45058627 -0.48696579 9.99638487 -0.375 7.4375 C-0.33632813 6.72658203 -0.29765625 6.01566406 -0.2578125 5.28320312 C-0.16328217 3.52257575 -0.08054183 1.76132272 0 0 Z " fill="#D8D8D9" transform="translate(303,274)"/>
<path d="M0 0 C0.66 0 1.32 0 2 0 C3.7265625 2.5546875 3.7265625 2.5546875 5.625 5.875 C6.25664062 6.96554687 6.88828125 8.05609375 7.5390625 9.1796875 C9 12 9 12 9 14 C7.1875 13.8125 7.1875 13.8125 5 13 C2 8.82142857 2 8.82142857 2 6 C0.35 6.33 -1.3 6.66 -3 7 C-1.125 2.25 -1.125 2.25 0 0 Z " fill="#4C5158" transform="translate(370,283)"/>
<path d="M0 0 C2.97 0 5.94 0 9 0 C9 1.32 9 2.64 9 4 C6.03 4 3.06 4 0 4 C0 2.68 0 1.36 0 0 Z " fill="#484C54" transform="translate(154,294)"/>
<path d="M0 0 C0.99 0 1.98 0 3 0 C3 3.96 3 7.92 3 12 C2.01 12 1.02 12 0 12 C0 8.04 0 4.08 0 0 Z " fill="#EBEBEB" transform="translate(309,274)"/>
<path d="M0 0 C1 3 1 3 0.00390625 5.26171875 C-0.47175781 6.06222656 -0.94742187 6.86273438 -1.4375 7.6875 C-2.14712891 8.89986328 -2.14712891 8.89986328 -2.87109375 10.13671875 C-3.24363281 10.75160156 -3.61617188 11.36648438 -4 12 C-4.99 12 -5.98 12 -7 12 C-5.77759242 7.95665186 -4.39561694 4.49360803 -2 1 C-1.34 0.67 -0.68 0.34 0 0 Z " fill="#DFDFE0" transform="translate(269,276)"/>
<path d="M0 0 C0.33 0.99 0.66 1.98 1 3 C-0.4375 5.1875 -0.4375 5.1875 -2 7 C-2.66 6.67 -3.32 6.34 -4 6 C-2.25 1.125 -2.25 1.125 0 0 Z " fill="#484D54" transform="translate(269,282)"/>
</svg>
